<svg width="178" height="178" viewBox="0 0 178 178" fill="none" xmlns="http://www.w3.org/2000/svg">
<circle cx="89.5" cy="89.5" r="87.5" fill="url(#paint0_linear_40000767_1091)"/>
<circle cx="90" cy="90" r="78" fill="black"/>
<path d="M106.43 46.681C106.43 76.5 106.43 93 106.43 114.365H97.0861V111.037C94.9906 113.496 91.5824 115.062 88.3267 115.062C79.9548 115.062 72.9007 108.396 72.9007 97.6984C72.9007 86.846 79.7222 79.5593 90.2646 79.5593C92.6676 79.5593 95.2257 80.0245 97.0861 80.7996V47.0686L106.43 46.681Z" fill="white"/>
<path fill-rule="evenodd" clip-rule="evenodd" d="M89.4179 129.524C111.463 129.524 129.334 111.653 129.334 89.6083C129.334 67.5635 111.463 49.6926 89.4179 49.6926C67.3731 49.6926 49.5022 67.5635 49.5022 89.6083C49.5022 111.653 67.3731 129.524 89.4179 129.524ZM89.4179 137.623C115.936 137.623 137.432 116.126 137.432 89.6083C137.432 63.0906 115.936 41.5938 89.4179 41.5938C62.9002 41.5938 41.4033 63.0906 41.4033 89.6083C41.4033 116.126 62.9002 137.623 89.4179 137.623Z" fill="white"/>
<defs>
<linearGradient id="paint0_linear_40000767_1091" x1="177" y1="56.5" x2="14.5" y2="128" gradientUnits="userSpaceOnUse">
<stop stop-color="#FDD558"/>
<stop offset="1" stop-color="#817050"/>
</linearGradient>
</defs>
</svg>
